<svg version="1.1" viewBox="0.0 0.0 955.1391076115485 579.6456692913385" fill="none" stroke="none" stroke-linecap="square" stroke-miterlimit="10" xmlns:xlink="http://www.w3.org/1999/xlink" xmlns="http://www.w3.org/2000/svg"><clipPath id="p.0"><path d="m0 0l955.1391 0l0 579.6457l-955.1391 0l0 -579.6457z" clip-rule="nonzero"/></clipPath><g clip-path="url(#p.0)"><path fill="#000000" fill-opacity="0.0" d="m0 0l955.1391 0l0 579.6457l-955.1391 0z" fill-rule="evenodd"/><path fill="#000000" d="m396.96063 289.82285l0 0c0 -45.86139 37.17798 -83.03938 83.03937 -83.03938l0 0c22.023407 0 43.144775 8.748764 58.717712 24.32167c15.572876 15.5729065 24.321655 36.694305 24.321655 58.717712l0 0c0 45.86136 -37.17798 83.03937 -83.03937 83.03937l0 0c-45.86139 0 -83.03937 -37.17801 -83.03937 -83.03937z" fill-rule="evenodd"/><path stroke="#000000" stroke-width="1.0" stroke-linejoin="round" stroke-linecap="butt" d="m396.96063 289.82285l0 0c0 -45.86139 37.17798 -83.03938 83.03937 -83.03938l0 0c22.023407 0 43.144775 8.748764 58.717712 24.32167c15.572876 15.5729065 24.321655 36.694305 24.321655 58.717712l0 0c0 45.86136 -37.17798 83.03937 -83.03937 83.03937l0 0c-45.86139 0 -83.03937 -37.17801 -83.03937 -83.03937z" fill-rule="evenodd"/><path fill="#000000" d="m60.761154 230.27953l171.33858 0l0 -59.543304l119.08661 119.086624l-119.08661 119.08661l0 -59.543304l-171.33858 0z" fill-rule="evenodd"/><path stroke="#000000" stroke-width="1.0" stroke-linejoin="round" stroke-linecap="butt" d="m60.761154 230.27953l171.33858 0l0 -59.543304l119.08661 119.086624l-119.08661 119.08661l0 -59.543304l-171.33858 0z" fill-rule="evenodd"/><path fill="#000000" d="m899.23883 349.36615l-171.33856 0l0 59.543304l-119.08661 -119.08661l119.08661 -119.086624l0 59.543304l171.33856 0z" fill-rule="evenodd"/><path stroke="#000000" stroke-width="1.0" stroke-linejoin="round" stroke-linecap="butt" d="m899.23883 349.36615l-171.33856 0l0 59.543304l-119.08661 -119.08661l119.08661 -119.086624l0 59.543304l171.33856 0z" fill-rule="evenodd"/></g></svg>